<svg width="303" height="170" viewBox="0 0 303 170" fill="none" xmlns="http://www.w3.org/2000/svg">
<rect x="4.5" y="4.5" width="161" height="161" rx="80.5" stroke="white" stroke-width="9"/>
<path d="M99.348 100.396H69.972L62.772 119.5H53.556L80.244 50.956H89.556L116.148 119.5H106.548L99.348 100.396ZM84.564 61.036L72.66 92.716H96.66L84.564 61.036Z" fill="white"/>
<rect x="137.5" y="4.5" width="161" height="161" rx="80.5" stroke="white" stroke-width="9"/>
<path d="M234.616 101.26C234.616 99.468 234.296 97.804 233.656 96.268C233.016 94.668 231.8 93.292 230.008 92.14C228.216 90.924 225.592 90.028 222.136 89.452L213.496 87.916C209.016 87.084 205.176 85.964 201.976 84.556C198.84 83.084 196.44 81.036 194.776 78.412C193.112 75.788 192.28 72.364 192.28 68.14C192.28 63.916 193.4 60.396 195.64 57.58C197.88 54.764 200.888 52.684 204.664 51.34C208.504 49.932 212.792 49.228 217.528 49.228C222.072 49.228 225.848 49.74 228.856 50.764C231.928 51.724 234.392 53.068 236.248 54.796C238.168 56.46 239.64 58.348 240.664 60.46C241.752 62.572 242.52 64.748 242.968 66.988L234.712 68.62C234.008 65.996 233.016 63.82 231.736 62.092C230.52 60.3 228.792 58.956 226.552 58.06C224.376 57.164 221.432 56.716 217.72 56.716C213.56 56.716 210.264 57.228 207.832 58.252C205.464 59.212 203.768 60.524 202.744 62.188C201.72 63.852 201.208 65.74 201.208 67.852C201.208 71.18 202.104 73.708 203.896 75.436C205.752 77.164 209.048 78.476 213.784 79.372L223.384 81.1C230.488 82.38 235.704 84.588 239.032 87.724C242.36 90.86 244.024 95.436 244.024 101.452C244.024 105.1 243.096 108.428 241.24 111.436C239.384 114.38 236.6 116.748 232.888 118.54C229.176 120.332 224.504 121.228 218.872 121.228C210.808 121.228 204.28 119.564 199.288 116.236C194.296 112.844 191.448 107.436 190.744 100.012H199.576C200.344 104.748 202.232 108.204 205.24 110.38C208.312 112.556 212.856 113.644 218.872 113.644C222.904 113.644 226.072 113.1 228.376 112.012C230.68 110.86 232.28 109.356 233.176 107.5C234.136 105.58 234.616 103.5 234.616 101.26Z" fill="white"/>
</svg>
